<?xml version="1.0" standalone="no"?>
<svg xmlns:xlink="http://www.w3.org/1999/xlink" id="wave" style="transform:rotate(0deg); transition: 0.3s" viewBox="0 0 1440 490" version="1.1" xmlns="http://www.w3.org/2000/svg"><defs><linearGradient id="sw-gradient-0" x1="0" x2="0" y1="1" y2="0"><stop stop-color="rgba(255, 127, 0, 1)" offset="0%"/><stop stop-color="rgba(255, 127, 0, 1)" offset="100%"/></linearGradient></defs><path style="transform:translate(0, 0px); opacity:1" fill="url(#sw-gradient-0)" d="M0,0L80,32.7C160,65,320,131,480,130.7C640,131,800,65,960,65.3C1120,65,1280,131,1440,187.8C1600,245,1760,294,1920,269.5C2080,245,2240,147,2400,122.5C2560,98,2720,147,2880,187.8C3040,229,3200,261,3360,285.8C3520,310,3680,327,3840,294C4000,261,4160,180,4320,171.5C4480,163,4640,229,4800,285.8C4960,343,5120,392,5280,367.5C5440,343,5600,245,5760,212.3C5920,180,6080,212,6240,187.8C6400,163,6560,82,6720,98C6880,114,7040,229,7200,245C7360,261,7520,180,7680,196C7840,212,8000,327,8160,343C8320,359,8480,278,8640,204.2C8800,131,8960,65,9120,65.3C9280,65,9440,131,9600,138.8C9760,147,9920,98,10080,89.8C10240,82,10400,114,10560,163.3C10720,212,10880,278,11040,326.7C11200,376,11360,408,11440,424.7L11520,441L11520,490L11440,490C11360,490,11200,490,11040,490C10880,490,10720,490,10560,490C10400,490,10240,490,10080,490C9920,490,9760,490,9600,490C9440,490,9280,490,9120,490C8960,490,8800,490,8640,490C8480,490,8320,490,8160,490C8000,490,7840,490,7680,490C7520,490,7360,490,7200,490C7040,490,6880,490,6720,490C6560,490,6400,490,6240,490C6080,490,5920,490,5760,490C5600,490,5440,490,5280,490C5120,490,4960,490,4800,490C4640,490,4480,490,4320,490C4160,490,4000,490,3840,490C3680,490,3520,490,3360,490C3200,490,3040,490,2880,490C2720,490,2560,490,2400,490C2240,490,2080,490,1920,490C1760,490,1600,490,1440,490C1280,490,1120,490,960,490C800,490,640,490,480,490C320,490,160,490,80,490L0,490Z"/></svg>